<?xml version="1.0" standalone="no"?>
<!DOCTYPE svg PUBLIC "-//W3C//DTD SVG 20010904//EN"
 "http://www.w3.org/TR/2001/REC-SVG-20010904/DTD/svg10.dtd">
<svg version="1.0" xmlns="http://www.w3.org/2000/svg"
 width="760.000000pt" height="760.000000pt" viewBox="0 0 760.000000 760.000000"
 preserveAspectRatio="xMidYMid meet">
<metadata>
Created by potrace 1.11, written by Peter Selinger 2001-2013
</metadata>
<g transform="translate(0.000000,760.000000) scale(0.100000,-0.100000)"
fill="#000000" stroke="none">
<path d="M3979 7482 c-48 -48 -225 -223 -394 -389 -210 -207 -304 -306 -299
-315 4 -7 117 -123 250 -258 133 -135 322 -327 420 -427 99 -100 396 -401 660
-670 453 -459 804 -815 1008 -1023 49 -50 93 -89 97 -88 5 2 180 172 390 378
210 206 388 381 396 389 11 11 11 16 1 29 -18 22 -250 258 -1398 1422 -144
146 -433 439 -643 653 -209 213 -386 387 -391 387 -6 0 -50 -40 -97 -88z"/>
<path d="M3093 6607 c-298 -300 -1335 -1322 -1343 -1325 -6 -2 -10 -10 -10
-17 0 -7 -5 -15 -10 -17 -6 -2 -84 -76 -174 -165 l-163 -162 408 -413 408
-412 246 245 c135 134 407 403 603 597 196 194 495 490 663 657 l306 304 -406
410 c-224 226 -408 411 -411 411 -3 -1 -55 -51 -117 -113z"/>
<path d="M4297 4490 l-529 -526 394 -398 394 -398 284 281 c157 155 396 393
533 528 l247 247 -65 66 c-35 36 -212 215 -393 398 -181 182 -331 331 -333
330 -2 0 -242 -238 -532 -528z"/>
<path d="M1125 4588 c-126 -126 -330 -328 -451 -449 l-222 -219 442 -446 c242
-245 634 -640 869 -877 389 -392 1054 -1064 2116 -2136 l391 -395 41 40 c324
314 861 854 858 862 -4 10 -296 305 -1829 1852 -259 261 -762 769 -1118 1129
-803 811 -863 871 -865 870 -1 -1 -105 -104 -232 -231z"/>
<path d="M6264 3647 c-34 -35 -619 -614 -1663 -1647 l-164 -163 34 -32 c19
-18 195 -195 392 -394 198 -199 363 -361 367 -359 8 3 458 447 1647 1627 l226
223 -34 33 c-19 18 -195 195 -391 394 -197 198 -361 361 -365 361 -5 0 -27
-19 -49 -43z"/>
</g>
</svg>
